<svg width="42" height="42" viewBox="0 0 42 42" fill="none" xmlns="http://www.w3.org/2000/svg">
<g id="vuesax/bold/login">
<g id="login">
<path id="Vector" d="M29.4 3.5H24.85C19.25 3.5 15.75 7 15.75 12.6V19.6875H23.52L19.8975 16.065C19.635 15.8025 19.5125 15.47 19.5125 15.1375C19.5125 14.805 19.635 14.4725 19.8975 14.21C20.405 13.7025 21.245 13.7025 21.7525 14.21L27.615 20.0725C28.1225 20.58 28.1225 21.42 27.615 21.9275L21.7525 27.79C21.245 28.2975 20.405 28.2975 19.8975 27.79C19.39 27.2825 19.39 26.4425 19.8975 25.935L23.52 22.3125H15.75V29.4C15.75 35 19.25 38.5 24.85 38.5H29.3825C34.9825 38.5 38.4825 35 38.4825 29.4V12.6C38.5 7 35 3.5 29.4 3.5Z" fill="white"/>
<path id="Vector_2" d="M4.8125 19.6875C4.095 19.6875 3.5 20.2825 3.5 21C3.5 21.7175 4.095 22.3125 4.8125 22.3125H15.75V19.6875H4.8125Z" fill="white"/>
</g>
</g>
</svg>
