<?xml version="1.0" encoding="UTF-8"?>
<svg version="1.1" xmlns="http://www.w3.org/2000/svg" width="76" height="24">
<path d="M0 0 C0 2 0 4 0 6 C0.495 6.495 0.495 6.495 1 7 C1.3125 9.375 1.3125 9.375 1 12 C-0.625 13.875 -0.625 13.875 -3 15 C-8.42553191 14.57446809 -8.42553191 14.57446809 -10 13 C-10.33 13.66 -10.66 14.32 -11 15 C-14.31248187 15.02888146 -17.62493167 15.04675799 -20.9375 15.0625 C-21.88302734 15.07087891 -22.82855469 15.07925781 -23.80273438 15.08789062 C-25.15141602 15.09272461 -25.15141602 15.09272461 -26.52734375 15.09765625 C-27.77632446 15.10551147 -27.77632446 15.10551147 -29.05053711 15.11352539 C-31 15 -31 15 -32 14 C-33.52519276 14.08937803 -35.04681929 14.24537146 -36.5625 14.4375 C-37.38878906 14.53933594 -38.21507812 14.64117188 -39.06640625 14.74609375 C-40.02353516 14.87177734 -40.02353516 14.87177734 -41 15 C-40.54548816 13.26982492 -40.08621143 11.54090123 -39.625 9.8125 C-39.36976562 8.84957031 -39.11453125 7.88664063 -38.8515625 6.89453125 C-38.05233704 4.17789793 -37.0968638 1.60862825 -36 -1 C-34.02 -1 -32.04 -1 -30 -1 C-29.34 0.32 -28.68 1.64 -28 3 C-27.67 1.68 -27.34 0.36 -27 -1 C-24.1875 -1.25 -24.1875 -1.25 -21 -1 C-19.125 1 -19.125 1 -18 3 C-17.67 1.68 -17.34 0.36 -17 -1 C-14.33333333 -1 -11.66666667 -1 -9 -1 C-5.23375329 -2.25541557 -3.62811066 -1.37061958 0 0 Z M-28 5 C-27 8 -27 8 -27 8 Z M-11 5 C-11 6.65 -11 8.3 -11 10 C-10.34 9.01 -9.68 8.02 -9 7 C-9.66 6.34 -10.32 5.68 -11 5 Z M-27 9 C-26 11 -26 11 -26 11 Z " fill="#B4B4B4" transform="translate(75,6)"/>
<path d="M0 0 C2.04291182 1.26660533 4.04690112 2.59886384 6 4 C7.0725 4.165 8.145 4.33 9.25 4.5 C10.1575 4.665 11.065 4.83 12 5 C13.375 7.0625 13.375 7.0625 14 9 C14.66 7.68 15.32 6.36 16 5 C17.65 5 19.3 5 21 5 C21.495 5.99 21.495 5.99 22 7 C21.34 7 20.68 7 20 7 C20.495 8.485 20.495 8.485 21 10 C20.34 10 19.68 10 19 10 C18.86722656 10.62648438 18.73445313 11.25296875 18.59765625 11.8984375 C18.42105469 12.71570312 18.24445312 13.53296875 18.0625 14.375 C17.88847656 15.18710938 17.71445312 15.99921875 17.53515625 16.8359375 C17 19 17 19 16 21 C14.35 21 12.7 21 11 21 C10.01 19.02 9.02 17.04 8 15 C7.608125 15.7425 7.21625 16.485 6.8125 17.25 C4.74148452 20.39223039 3.25777083 22.08783016 0 24 C-4.58700801 24.82566144 -7.90591807 24.65179349 -11.9375 22.25 C-15.80310976 18.03297117 -16.3343724 14.763378 -16.1875 9.19140625 C-15.95001748 6.41582929 -15.48354255 4.37366807 -14 2 C-12 1.25 -12 1.25 -10 1 C-6.7939505 -0.60302475 -3.4787652 -0.49510516 0 0 Z M3 6 C4 8 4 8 4 8 Z M6 6 C7 8 7 8 7 8 Z M4 8 C5 10 5 10 5 10 Z M7 9 C8 12 8 12 8 12 Z M-8 10 C-8 10.99 -8 11.98 -8 13 C-7.34 13 -6.68 13 -6 13 C-6 12.01 -6 11.02 -6 10 C-6.66 10 -7.32 10 -8 10 Z M1 11 C0.67 12.65 0.34 14.3 0 16 C0.66 15.67 1.32 15.34 2 15 C1.67 13.68 1.34 12.36 1 11 Z M4 11 C3.67 13.31 3.34 15.62 3 18 C5.28728734 16.16116119 5.28728734 16.16116119 5.125 13.375 C5.063125 12.199375 5.063125 12.199375 5 11 C4.67 11 4.34 11 4 11 Z M-3 12 C-2.67 12.99 -2.34 13.98 -2 15 C-2 14.01 -2 13.02 -2 12 C-2.33 12 -2.66 12 -3 12 Z M-9 15 C-8 17 -8 17 -8 17 Z M-6 15 C-5.34 15.66 -4.68 16.32 -4 17 C-3.67 16.34 -3.34 15.68 -3 15 C-3.99 15 -4.98 15 -6 15 Z M-2 17 C-2.33 17.66 -2.66 18.32 -3 19 C-2.34 19 -1.68 19 -1 19 C-1.33 18.34 -1.66 17.68 -2 17 Z " fill="#FD914F" transform="translate(16,0)"/>
<path d="M0 0 C1.98 0 3.96 0 6 0 C6.66 1.32 7.32 2.64 8 4 C8.33 2.68 8.66 1.36 9 0 C11.8125 -0.25 11.8125 -0.25 15 0 C16.875 2 16.875 2 18 4 C18.66 3.67 19.32 3.34 20 3 C19.625 5.9375 19.625 5.9375 19 9 C18.01 9.495 18.01 9.495 17 10 C14 4.375 14 4.375 14 1 C13.01 1 12.02 1 11 1 C11 5.29 11 9.58 11 14 C11.66 14 12.32 14 13 14 C13 11.36 13 8.72 13 6 C15.5654594 8.5654594 15.54046087 10.47686668 16 14 C16.66 14 17.32 14 18 14 C18.66 12.02 19.32 10.04 20 8 C20.33 8 20.66 8 21 8 C21 10.31 21 12.62 21 15 C21.99 15.33 22.98 15.66 24 16 C20.85418577 16.02888514 17.70840531 16.04675923 14.5625 16.0625 C13.66466797 16.07087891 12.76683594 16.07925781 11.84179688 16.08789062 C10.56079102 16.09272461 10.56079102 16.09272461 9.25390625 16.09765625 C8.46314697 16.10289307 7.6723877 16.10812988 6.85766602 16.11352539 C5 16 5 16 4 15 C2.47480724 15.08937803 0.95318071 15.24537146 -0.5625 15.4375 C-1.38878906 15.53933594 -2.21507812 15.64117187 -3.06640625 15.74609375 C-3.70449219 15.82988281 -4.34257813 15.91367187 -5 16 C-4.54548816 14.26982492 -4.08621143 12.54090123 -3.625 10.8125 C-3.36976562 9.84957031 -3.11453125 8.88664063 -2.8515625 7.89453125 C-2.05233704 5.17789793 -1.0968638 2.60862825 0 0 Z M8 6 C9 9 9 9 9 9 Z M9 10 C10 12 10 12 10 12 Z " fill="#AEAEAE" transform="translate(39,5)"/>
<path d="M0 0 C2.875 0.25 2.875 0.25 6 1 C7.375 3.0625 7.375 3.0625 8 5 C8.66 3.68 9.32 2.36 10 1 C11.65 1 13.3 1 15 1 C15.33 1.66 15.66 2.32 16 3 C15.34 3 14.68 3 14 3 C14.33 3.99 14.66 4.98 15 6 C14.34 6 13.68 6 13 6 C12.86722656 6.62648438 12.73445313 7.25296875 12.59765625 7.8984375 C12.33275391 9.12433594 12.33275391 9.12433594 12.0625 10.375 C11.88847656 11.18710938 11.71445312 11.99921875 11.53515625 12.8359375 C11 15 11 15 10 17 C8.35 17 6.7 17 5 17 C4.16301614 14.54285453 3.33027576 12.08441143 2.5 9.625 C2.26152344 8.92632812 2.02304687 8.22765625 1.77734375 7.5078125 C0 2.2265625 0 2.2265625 0 0 Z " fill="#AFADAC" transform="translate(22,4)"/>
<path d="M0 0 C1.32 0.33 2.64 0.66 4 1 C4.99 4.96 5.98 8.92 7 13 C6.34 13 5.68 13 5 13 C5 12.01 5 11.02 5 10 C2.02934491 10.34227572 2.02934491 10.34227572 -1 11 C-1.33 11.66 -1.66 12.32 -2 13 C-2.66 12.67 -3.32 12.34 -4 12 C-2.68 8.04 -1.36 4.08 0 0 Z " fill="#3E3E3E" transform="translate(40,6)"/>
<path d="M0 0 C2.5654594 2.5654594 2.54046087 4.47686668 3 8 C3.66 8 4.32 8 5 8 C5.66 6.02 6.32 4.04 7 2 C7.33 2 7.66 2 8 2 C8 4.31 8 6.62 8 9 C8.99 9.33 9.98 9.66 11 10 C5.06 10 -0.88 10 -7 10 C-6.01 9.67 -5.02 9.34 -4 9 C-3.67 8.01 -3.34 7.02 -3 6 C-3 6.66 -3 7.32 -3 8 C-2.01 8 -1.02 8 0 8 C0 5.36 0 2.72 0 0 Z " fill="#C0C0C0" transform="translate(52,11)"/>
<path d="M0 0 C0.99 0 1.98 0 3 0 C3.474375 1.134375 3.94875 2.26875 4.4375 3.4375 C5.63622083 6.75740166 5.63622083 6.75740166 7 8 C7.66 7.01 8.32 6.02 9 5 C8.125 10.75 8.125 10.75 7 13 C6.34 13 5.68 13 5 13 C4.34 11.02 3.68 9.04 3 7 C2.67 8.98 2.34 10.96 2 13 C1.34 13 0.68 13 0 13 C0 8.71 0 4.42 0 0 Z " fill="#141414" transform="translate(50,6)"/>
<path d="M0 0 C0.99 0 1.98 0 3 0 C3 3.3 3 6.6 3 10 C3.66 10 4.32 10 5 10 C4.67 11.65 4.34 13.3 4 15 C2.68 14.67 1.36 14.34 0 14 C-0.19393875 11.85473901 -0.37998676 9.70876323 -0.5625 7.5625 C-0.71912109 5.77005859 -0.71912109 5.77005859 -0.87890625 3.94140625 C-0.91886719 2.97074219 -0.95882812 2.00007812 -1 1 C-0.67 0.67 -0.34 0.34 0 0 Z " fill="#818181" transform="translate(60,6)"/>
<path d="M0 0 C2.33944736 0.28730055 4.6739143 0.61936779 7 1 C7 1.33 7 1.66 7 2 C5.02 2 3.04 2 1 2 C1.33 2.99 1.66 3.98 2 5 C2.825 5.309375 3.65 5.61875 4.5 5.9375 C7 7 7 7 7.9375 9 C7.958125 9.66 7.97875 10.32 8 11 C6 13 6 13 2.875 13.125 C1.451875 13.063125 1.451875 13.063125 0 13 C0 12.01 0 11.02 0 10 C1.98 10.495 1.98 10.495 4 11 C4 10.01 4 9.02 4 8 C1.525 7.01 1.525 7.01 -1 6 C-1.042721 4.33388095 -1.04063832 2.66617115 -1 1 C-0.67 0.67 -0.34 0.34 0 0 Z " fill="#191919" transform="translate(67,6)"/>
<path d="M0 0 C0.99 0.495 0.99 0.495 2 1 C2.73075648 3.3140622 3.40138258 5.64828869 4 8 C4.45375 7.236875 4.9075 6.47375 5.375 5.6875 C6.53824492 3.76367186 7.7529415 1.87058776 9 0 C8.45144652 4.571279 7.58255197 8.67435795 6 13 C5.01 13 4.02 13 3 13 C2.49242138 11.58603098 1.99425075 10.16868271 1.5 8.75 C1.08234375 7.56664062 1.08234375 7.56664062 0.65625 6.359375 C0 4 0 4 0 0 Z " fill="#0F0F0F" transform="translate(25,6)"/>
<path d="M0 0 C1.32 0.66 2.64 1.32 4 2 C3.34 3.32 2.68 4.64 2 6 C1.34 6 0.68 6 0 6 C-0.33 6.66 -0.66 7.32 -1 8 C-2.32 7.67 -3.64 7.34 -5 7 C-4.67 5.68 -4.34 4.36 -4 3 C-3.01 3 -2.02 3 -1 3 C-0.67 2.01 -0.34 1.02 0 0 Z " fill="#3DBD6C" transform="translate(14,7)"/>
<path d="M0 0 C1.2065625 0.0309375 1.2065625 0.0309375 2.4375 0.0625 C2.7675 0.7225 3.0975 1.3825 3.4375 2.0625 C2.7775 2.0625 2.1175 2.0625 1.4375 2.0625 C1.7675 3.0525 2.0975 4.0425 2.4375 5.0625 C1.1175 4.7325 -0.2025 4.4025 -1.5625 4.0625 C-2.2225 5.0525 -2.8825 6.0425 -3.5625 7.0625 C-3.60504356 5.06295254 -3.60330783 3.06208364 -3.5625 1.0625 C-2.5625 0.0625 -2.5625 0.0625 0 0 Z " fill="#949494" transform="translate(34.5625,4.9375)"/>
<path d="M0 0 C0.66 0 1.32 0 2 0 C2 4.29 2 8.58 2 13 C1.67 13 1.34 13 1 13 C1 10.36 1 7.72 1 5 C0.34 5 -0.32 5 -1 5 C-0.67 3.35 -0.34 1.7 0 0 Z " fill="#0D0D0D" transform="translate(60,6)"/>
<path d="M0 0 C1.98 0.495 1.98 0.495 4 1 C4.33 3.31 4.66 5.62 5 8 C4.34 7.34 3.68 6.68 3 6 C3 5.01 3 4.02 3 3 C2.34 3 1.68 3 1 3 C0.67 3.99 0.34 4.98 0 6 C-1.24546405 3.50907189 -0.7767578 2.58919267 0 0 Z " fill="#0E0E0E" transform="translate(40,6)"/>
<path d="M0 0 C0.93065133 2.60582371 1.14917407 3.64198224 0.0625 6.25 C-0.4634375 7.11625 -0.4634375 7.11625 -1 8 C-1.66 8 -2.32 8 -3 8 C-3.625 6.125 -3.625 6.125 -4 4 C-3.34 3.34 -2.68 2.68 -2 2 C-1.67 2.33 -1.34 2.66 -1 3 C-0.67 2.01 -0.34 1.02 0 0 Z " fill="#1B1B1B" transform="translate(58,11)"/>
<path d="M0 0 C2.97 0 5.94 0 9 0 C9 0.33 9 0.66 9 1 C6.03 1 3.06 1 0 1 C0 0.67 0 0.34 0 0 Z " fill="#E2E2E2" transform="translate(44,22)"/>
<path d="M0 0 C2.31 0.33 4.62 0.66 7 1 C7 1.33 7 1.66 7 2 C5.02 2 3.04 2 1 2 C0.67 1.34 0.34 0.68 0 0 Z " fill="#BFBFBF" transform="translate(66,21)"/>
<path d="M0 0 C1.98 0 3.96 0 6 0 C6 0.33 6 0.66 6 1 C4.02 1 2.04 1 0 1 C0 0.67 0 0.34 0 0 Z " fill="#555555" transform="translate(39,3)"/>
<path d="M0 0 C1.65 0 3.3 0 5 0 C5 0.33 5 0.66 5 1 C3.35 1 1.7 1 0 1 C0 0.67 0 0.34 0 0 Z " fill="#A1A1A1" transform="translate(59,22)"/>
<path d="M0 0 C1.65 0 3.3 0 5 0 C5 0.33 5 0.66 5 1 C3.35 1 1.7 1 0 1 C0 0.67 0 0.34 0 0 Z " fill="#AAAAAA" transform="translate(34,22)"/>
<path d="M0 0 C1.65 0 3.3 0 5 0 C5 0.33 5 0.66 5 1 C3.35 1 1.7 1 0 1 C0 0.67 0 0.34 0 0 Z " fill="#BBBBBB" transform="translate(27,22)"/>
<path d="M0 0 C0.66 0 1.32 0 2 0 C1.67 1.32 1.34 2.64 1 4 C0.67 2.68 0.34 1.36 0 0 Z " fill="#A5A5A5" transform="translate(55,5)"/>
<path d="M0 0 C1.65 0 3.3 0 5 0 C5 0.33 5 0.66 5 1 C3.35 1 1.7 1 0 1 C0 0.67 0 0.34 0 0 Z " fill="#4C4C4C" transform="translate(59,3)"/>
<path d="M0 0 C1.65 0 3.3 0 5 0 C5 0.33 5 0.66 5 1 C3.35 1 1.7 1 0 1 C0 0.67 0 0.34 0 0 Z " fill="#333333" transform="translate(49,3)"/>
<path d="M0 0 C1.65 0 3.3 0 5 0 C5 0.33 5 0.66 5 1 C3.35 1 1.7 1 0 1 C0 0.67 0 0.34 0 0 Z " fill="#333333" transform="translate(23,3)"/>
<path d="M0 0 C4 1 4 1 4 1 Z " fill="#E9E9E9" transform="translate(54,22)"/>
<path d="M0 0 C0.33 0.99 0.66 1.98 1 3 C0.34 2.67 -0.32 2.34 -1 2 C-0.67 1.34 -0.34 0.68 0 0 Z " fill="#C8B0A3" transform="translate(24,16)"/>
<path d="M0 0 C1 4 1 4 1 4 Z " fill="#989898" transform="translate(29,5)"/>
<path d="M0 0 C4 1 4 1 4 1 Z " fill="#404040" transform="translate(32,3)"/>
<path d="M0 0 C0.33 0.66 0.66 1.32 1 2 C0.34 1.67 -0.32 1.34 -1 1 C-0.67 0.67 -0.34 0.34 0 0 Z " fill="#2A2A2A" transform="translate(75,19)"/>
<path d="" fill="#A1A1A1" transform="translate(0,0)"/>
<path d="M0 0 C3 1 3 1 3 1 Z " fill="#888888" transform="translate(66,3)"/>
<path d="M0 0 C2 1 2 1 2 1 Z " fill="#FF4040" transform="translate(18,23)"/>
<path d="" fill="#5F5F5F" transform="translate(0,0)"/>
<path d="" fill="#FFFF00" transform="translate(0,0)"/>
<path d="" fill="#FF4040" transform="translate(0,0)"/>
<path d="M0 0 C2 1 2 1 2 1 Z " fill="#9F9F9F" transform="translate(72,3)"/>
<path d="M0 0 C2 1 2 1 2 1 Z " fill="#FFFFFF" transform="translate(69,2)"/>
<path d="M0 0 C2 1 2 1 2 1 Z " fill="#FF956A" transform="translate(3,1)"/>
<path d="" fill="#FF8080" transform="translate(0,0)"/>
<path d="" fill="#FFFF00" transform="translate(0,0)"/>
<path d="" fill="#FF8080" transform="translate(0,0)"/>
<path d="" fill="#CCCCCC" transform="translate(0,0)"/>
<path d="" fill="#000000" transform="translate(0,0)"/>
<path d="" fill="#FFFFFF" transform="translate(0,0)"/>
<path d="" fill="#FFFFFF" transform="translate(0,0)"/>
<path d="" fill="#FFFFFF" transform="translate(0,0)"/>
<path d="" fill="#FFFFFF" transform="translate(0,0)"/>
<path d="" fill="#FFFFFF" transform="translate(0,0)"/>
<path d="" fill="#FFFF00" transform="translate(0,0)"/>
<path d="" fill="#FF8080" transform="translate(0,0)"/>
<path d="" fill="#AAAAAA" transform="translate(0,0)"/>
<path d="" fill="#FF8080" transform="translate(0,0)"/>
<path d="" fill="#AAAAAA" transform="translate(0,0)"/>
<path d="" fill="#BFBFBF" transform="translate(0,0)"/>
<path d="" fill="#AAAAAA" transform="translate(0,0)"/>
<path d="" fill="#FFFFFF" transform="translate(0,0)"/>
<path d="" fill="#000000" transform="translate(0,0)"/>
<path d="" fill="#FFFFFF" transform="translate(0,0)"/>
<path d="" fill="#FFAA55" transform="translate(0,0)"/>
<path d="" fill="#FF9933" transform="translate(0,0)"/>
<path d="" fill="#FF9966" transform="translate(0,0)"/>
<path d="" fill="#FF9933" transform="translate(0,0)"/>
<path d="" fill="#FFAA55" transform="translate(0,0)"/>
<path d="" fill="#FF8040" transform="translate(0,0)"/>
</svg>
